<svg width="51" height="32" viewBox="0 0 51 32" fill="none" xmlns="http://www.w3.org/2000/svg">
<g clip-path="url(#clip0_1_9617)">
<path d="M27.202 9.44C27.5646 6.09067 28.706 3.68 30.626 2.208C32.546 0.735998 34.9353 0 37.794 0C40.93 0 43.4046 0.853333 45.218 2.56C47.0313 4.26666 47.938 6.4 47.938 8.96C47.938 10.3893 47.6766 11.7653 47.154 13.088C46.6313 14.4107 45.8153 15.7653 44.706 17.152C43.9593 18.112 42.6366 19.456 40.738 21.184C38.818 22.976 37.6233 24.1387 37.154 24.672C36.7913 25.0773 36.45 25.536 36.13 26.048H47.938V32H26.466L26.498 31.808C26.7113 29.6747 27.3993 27.648 28.562 25.728C29.7246 23.808 31.9913 21.2693 35.362 18.112C38.0926 15.552 39.746 13.8347 40.322 12.96C41.1326 11.7653 41.538 10.5707 41.538 9.376C41.538 8.05333 41.1966 7.05066 40.514 6.368C39.8313 5.68533 38.882 5.344 37.666 5.344C36.45 5.344 35.4793 5.70667 34.754 6.432C34.1353 7.072 33.7406 8.096 33.57 9.504V10.144H27.17L27.202 9.44ZM25.09 0.191999H0.00195312V5.856H9.34595V32H16.034V5.856H25.282V0.191999H25.09ZM46.818 0.447998H47.49V2.24H47.746V0.447998H48.418V0.191999H46.818V0.447998ZM49.026 0.191999H48.674V2.24H48.93V0.543999L49.538 2.24H49.794L50.402 0.543999V2.24H50.658V0.191999H50.306L49.666 1.92L49.026 0.191999Z" fill="#E67300"/>
</g>
<defs>
<clipPath id="clip0_1_9617">
<rect width="50.66" height="32" fill="white" transform="matrix(1 0 0 -1 0 32)"/>
</clipPath>
</defs>
</svg>
